<svg id="SvgjsSvg1006" width="646" height="384" xmlns="http://www.w3.org/2000/svg" version="1.1" xmlns:xlink="http://www.w3.org/1999/xlink" xmlns:svgjs="http://svgjs.com/svgjs"><defs id="SvgjsDefs1007"><marker id="SvgjsMarker1052" markerWidth="16" markerHeight="12" refX="16" refY="6" viewBox="0 0 16 12" orient="auto" markerUnits="userSpaceOnUse" stroke-dasharray="0,0"><path id="SvgjsPath1053" d="M0,2 L14,6 L0,11 L0,2" fill="#323232" stroke="#323232" stroke-width="2"></path></marker><marker id="SvgjsMarker1056" markerWidth="16" markerHeight="12" refX="16" refY="6" viewBox="0 0 16 12" orient="auto" markerUnits="userSpaceOnUse" stroke-dasharray="0,0"><path id="SvgjsPath1057" d="M0,2 L14,6 L0,11 L0,2" fill="#323232" stroke="#323232" stroke-width="2"></path></marker><marker id="SvgjsMarker1060" markerWidth="16" markerHeight="12" refX="16" refY="6" viewBox="0 0 16 12" orient="auto" markerUnits="userSpaceOnUse" stroke-dasharray="0,0"><path id="SvgjsPath1061" d="M0,2 L14,6 L0,11 L0,2" fill="#323232" stroke="#323232" stroke-width="2"></path></marker><marker id="SvgjsMarker1064" markerWidth="16" markerHeight="12" refX="16" refY="6" viewBox="0 0 16 12" orient="auto" markerUnits="userSpaceOnUse" stroke-dasharray="0,0"><path id="SvgjsPath1065" d="M0,2 L14,6 L0,11 L0,2" fill="#323232" stroke="#323232" stroke-width="2"></path></marker><marker id="SvgjsMarker1068" markerWidth="16" markerHeight="12" refX="16" refY="6" viewBox="0 0 16 12" orient="auto" markerUnits="userSpaceOnUse" stroke-dasharray="0,0"><path id="SvgjsPath1069" d="M0,2 L14,6 L0,11 L0,2" fill="#323232" stroke="#323232" stroke-width="2"></path></marker><marker id="SvgjsMarker1072" markerWidth="16" markerHeight="12" refX="16" refY="6" viewBox="0 0 16 12" orient="auto" markerUnits="userSpaceOnUse" stroke-dasharray="0,0"><path id="SvgjsPath1073" d="M0,2 L14,6 L0,11 L0,2" fill="#323232" stroke="#323232" stroke-width="2"></path></marker><marker id="SvgjsMarker1076" markerWidth="16" markerHeight="12" refX="16" refY="6" viewBox="0 0 16 12" orient="auto" markerUnits="userSpaceOnUse" stroke-dasharray="0,0"><path id="SvgjsPath1077" d="M0,2 L14,6 L0,11 L0,2" fill="#323232" stroke="#323232" stroke-width="2"></path></marker><marker id="SvgjsMarker1080" markerWidth="16" markerHeight="12" refX="16" refY="6" viewBox="0 0 16 12" orient="auto" markerUnits="userSpaceOnUse" stroke-dasharray="0,0"><path id="SvgjsPath1081" d="M0,2 L14,6 L0,11 L0,2" fill="#323232" stroke="#323232" stroke-width="2"></path></marker><marker id="SvgjsMarker1084" markerWidth="16" markerHeight="12" refX="16" refY="6" viewBox="0 0 16 12" orient="auto" markerUnits="userSpaceOnUse" stroke-dasharray="0,0"><path id="SvgjsPath1085" d="M0,2 L14,6 L0,11 L0,2" fill="#323232" stroke="#323232" stroke-width="2"></path></marker></defs><g id="SvgjsG1008" transform="translate(25,157)"><path id="SvgjsPath1009" d="M 0 4Q 0 0 4 0L 96 0Q 100 0 100 4L 100 66Q 100 70 96 70L 4 70Q 0 70 0 66Z" stroke="rgba(50,50,50,1)" stroke-width="2" fill-opacity="1" fill="#ffffff"></path><g id="SvgjsG1010"><text id="SvgjsText1011" font-family="&quot;Lucida Console&quot;" text-anchor="middle" font-size="15px" width="80px" fill="#323232" font-weight="400" align="middle" anchor="middle" family="&quot;Lucida Console&quot;" size="15px" weight="400" font-style="" opacity="1" y="23.25" transform="rotate(0)"><tspan id="SvgjsTspan1012" dy="18" x="50"><tspan id="SvgjsTspan1013" style="text-decoration:;">byte</tspan></tspan></text></g></g><g id="SvgjsG1014" transform="translate(352,25)"><path id="SvgjsPath1015" d="M 0 4Q 0 0 4 0L 96 0Q 100 0 100 4L 100 66Q 100 70 96 70L 4 70Q 0 70 0 66Z" stroke="rgba(50,50,50,1)" stroke-width="2" fill-opacity="1" fill="#ffffff"></path><g id="SvgjsG1016"><text id="SvgjsText1017" font-family="&quot;Lucida Console&quot;" text-anchor="middle" font-size="15px" width="80px" fill="#323232" font-weight="400" align="middle" anchor="middle" family="&quot;Lucida Console&quot;" size="15px" weight="400" font-style="" opacity="1" y="23.25" transform="rotate(0)"><tspan id="SvgjsTspan1018" dy="18" x="50"><tspan id="SvgjsTspan1019" style="text-decoration:;">char</tspan></tspan></text></g></g><g id="SvgjsG1020" transform="translate(521,289)"><path id="SvgjsPath1021" d="M 0 4Q 0 0 4 0L 96 0Q 100 0 100 4L 100 66Q 100 70 96 70L 4 70Q 0 70 0 66Z" stroke="rgba(50,50,50,1)" stroke-width="2" fill-opacity="1" fill="#ffffff"></path><g id="SvgjsG1022"><text id="SvgjsText1023" font-family="&quot;Lucida Console&quot;" text-anchor="middle" font-size="15px" width="80px" fill="#323232" font-weight="400" align="middle" anchor="middle" family="&quot;Lucida Console&quot;" size="15px" weight="400" font-style="" opacity="1" y="23.25" transform="rotate(0)"><tspan id="SvgjsTspan1024" dy="18" x="50"><tspan id="SvgjsTspan1025" style="text-decoration:;">double</tspan></tspan></text></g></g><g id="SvgjsG1026" transform="translate(521,157)"><path id="SvgjsPath1027" d="M 0 4Q 0 0 4 0L 96 0Q 100 0 100 4L 100 66Q 100 70 96 70L 4 70Q 0 70 0 66Z" stroke="rgba(50,50,50,1)" stroke-width="2" fill-opacity="1" fill="#ffffff"></path><g id="SvgjsG1028"><text id="SvgjsText1029" font-family="&quot;Lucida Console&quot;" text-anchor="middle" font-size="15px" width="80px" fill="#323232" font-weight="400" align="middle" anchor="middle" family="&quot;Lucida Console&quot;" size="15px" weight="400" font-style="" opacity="1" y="23.25" transform="rotate(0)"><tspan id="SvgjsTspan1030" dy="18" x="50"><tspan id="SvgjsTspan1031" style="text-decoration:;">long</tspan></tspan></text></g></g><g id="SvgjsG1032" transform="translate(352,289)"><path id="SvgjsPath1033" d="M 0 4Q 0 0 4 0L 96 0Q 100 0 100 4L 100 66Q 100 70 96 70L 4 70Q 0 70 0 66Z" stroke="rgba(50,50,50,1)" stroke-width="2" fill-opacity="1" fill="#ffffff"></path><g id="SvgjsG1034"><text id="SvgjsText1035" font-family="&quot;Lucida Console&quot;" text-anchor="middle" font-size="15px" width="80px" fill="#323232" font-weight="400" align="middle" anchor="middle" family="&quot;Lucida Console&quot;" size="15px" weight="400" font-style="" opacity="1" y="23.25" transform="rotate(0)"><tspan id="SvgjsTspan1036" dy="18" x="50"><tspan id="SvgjsTspan1037" style="text-decoration:;">float</tspan></tspan></text></g></g><g id="SvgjsG1038" transform="translate(352,157)"><path id="SvgjsPath1039" d="M 0 4Q 0 0 4 0L 96 0Q 100 0 100 4L 100 66Q 100 70 96 70L 4 70Q 0 70 0 66Z" stroke="rgba(50,50,50,1)" stroke-width="2" fill-opacity="1" fill="#ffffff"></path><g id="SvgjsG1040"><text id="SvgjsText1041" font-family="&quot;Lucida Console&quot;" text-anchor="middle" font-size="15px" width="80px" fill="#323232" font-weight="400" align="middle" anchor="middle" family="&quot;Lucida Console&quot;" size="15px" weight="400" font-style="" opacity="1" y="23.25" transform="rotate(0)"><tspan id="SvgjsTspan1042" dy="18" x="50"><tspan id="SvgjsTspan1043" style="text-decoration:;">int</tspan></tspan></text></g></g><g id="SvgjsG1044" transform="translate(191,157)"><path id="SvgjsPath1045" d="M 0 4Q 0 0 4 0L 96 0Q 100 0 100 4L 100 66Q 100 70 96 70L 4 70Q 0 70 0 66Z" stroke="rgba(50,50,50,1)" stroke-width="2" fill-opacity="1" fill="#ffffff"></path><g id="SvgjsG1046"><text id="SvgjsText1047" font-family="&quot;Lucida Console&quot;" text-anchor="middle" font-size="15px" width="80px" fill="#323232" font-weight="400" align="middle" anchor="middle" family="&quot;Lucida Console&quot;" size="15px" weight="400" font-style="" opacity="1" y="23.25" transform="rotate(0)"><tspan id="SvgjsTspan1048" dy="18" x="50"><tspan id="SvgjsTspan1049" style="text-decoration:;">short</tspan></tspan></text></g></g><g id="SvgjsG1050"><path id="SvgjsPath1051" d="M125 192L158 192L158 192L191 192" stroke="#323232" stroke-width="2" fill="none" marker-end="url(#SvgjsMarker1052)"></path></g><g id="SvgjsG1054"><path id="SvgjsPath1055" d="M291 192L321.5 192L321.5 192L352 192" stroke="#323232" stroke-width="2" fill="none" marker-end="url(#SvgjsMarker1056)"></path></g><g id="SvgjsG1058"><path id="SvgjsPath1059" d="M402 95L402 126L402 126L402 157" stroke="#323232" stroke-width="2" fill="none" marker-end="url(#SvgjsMarker1060)"></path></g><g id="SvgjsG1062"><path id="SvgjsPath1063" d="M452 192L486.5 192L486.5 192L521 192" stroke="#323232" stroke-width="2" fill="none" marker-end="url(#SvgjsMarker1064)"></path></g><g id="SvgjsG1066"><path id="SvgjsPath1067" d="M571 227L571 258L571 258L571 289" stroke-dasharray="8,5" stroke="#323232" stroke-width="2" fill="none" marker-end="url(#SvgjsMarker1068)"></path></g><g id="SvgjsG1070"><path id="SvgjsPath1071" d="M402 227L402 258L402 258L402 289" stroke-dasharray="8,5" stroke="#323232" stroke-width="2" fill="none" marker-end="url(#SvgjsMarker1072)"></path></g><g id="SvgjsG1074"><path id="SvgjsPath1075" d="M452 324L486.5 324L486.5 324L521 324" stroke="#323232" stroke-width="2" fill="none" marker-end="url(#SvgjsMarker1076)"></path></g><g id="SvgjsG1078"><path id="SvgjsPath1079" d="M450.233955556881 223.35721239031346L522.2766081771559 291.2943057454042" stroke="#323232" stroke-width="2" fill="none" marker-end="url(#SvgjsMarker1080)"></path></g><g id="SvgjsG1082"><path id="SvgjsPath1083" d="M521.4142135623731 222.5857864376269L449.37476885185345 289.6904730469628" stroke-dasharray="8,5" stroke="#323232" stroke-width="2" fill="none" marker-end="url(#SvgjsMarker1084)"></path></g></svg>